{"title":"Oprah.Winfrey.2011.05.19.Most.Memorable.Guests.The.Ultimate.Reun","uid":6431606,"size":1170648211,"categoryP":"video","categoryS":"hd___tv_shows","magnet":"?xt=urn:btih:db18f208e0888d4ab8288b7c8639af5a0813d630&amp;dn=Oprah.Winfrey.2011.05.19.Most.Memorable.Guests.The.Ultimate.Reun&amp;tr=udp%3A%2F%2Ftracker.openbittorrent.com%3A80&amp;tr=udp%3A%2F%2Fopen.demonii.com%3A1337&amp;tr=udp%3A%2F%2Ftracker.coppersurfer.tk%3A6969&amp;tr=udp%3A%2F%2Fexodus.desync.com%3A6969","seeders":0,"leechers":1,"uploader":"DBaum23","files":2,"time":1306629173,"description":"Oprah.Winfrey.2011.05.19.Most.Memorable.Guests.The.Ultimate.Reunion.720p.x264-Nile\n\nGeneral\nFormat                           : Matroska\nFile size                        : 1.09 GiB\nDuration                         : 42mn 41s\nOverall bit rate                 : 3 656 Kbps\nEncoded date                     : UTC 2011-05-20 03:06:51\n\nVideo\nID                               : 1\nFormat                           : AVC\nFormat/Info                      : Advanced Video Codec\nFormat profile                   : &lt;a class=&quot;__cf_email__&quot; href=&quot;/cdn-cgi/l/email-protection&quot; data-cfemail=&quot;642c0d030c2428574a55&quot;&gt;[email&amp;#160;protected]&lt;/a&gt;&lt;script cf-hash='f9e31' type=&quot;text/javascript&quot;&gt;\n/* &lt;![CDATA[ */!function(){try{var t=&quot;currentScript&quot;in document?document.currentScript:function(){for(var t=document.getElementsByTagName(&quot;script&quot;),e=t.length;e--;)if(t[e].getAttribute(&quot;cf-hash&quot;))return t[e]}();if(t&amp;&amp;t.previousSibling){var e,r,n,i,c=t.previousSibling,a=c.getAttribute(&quot;data-cfemail&quot;);if(a){for(e=&quot;&quot;,r=parseInt(a.substr(0,2),16),n=2;a.length-n;n+=2)i=parseInt(a.substr(n,2),16)^r,e+=String.fromCharCode(i);e=document.createTextNode(e),c.parentNode.replaceChild(e,c)}}}catch(u){}}();/* ]]&gt; */&lt;/script&gt;\nFormat settings, CABAC           : No\nFormat settings, ReFrames        : 1 frame\nMuxing mode                      : Container profile=&lt;a class=&quot;__cf_email__&quot; href=&quot;/cdn-cgi/l/email-protection&quot; data-cfemail=&quot;15407b7e7b7a627b55263b24&quot;&gt;[email&amp;#160;protected]&lt;/a&gt;&lt;script cf-hash='f9e31' type=&quot;text/javascript&quot;&gt;\n/* &lt;![CDATA[ */!function(){try{var t=&quot;currentScript&quot;in document?document.currentScript:function(){for(var t=document.getElementsByTagName(&quot;script&quot;),e=t.length;e--;)if(t[e].getAttribute(&quot;cf-hash&quot;))return t[e]}();if(t&amp;&amp;t.previousSibling){var e,r,n,i,c=t.previousSibling,a=c.getAttribute(&quot;data-cfemail&quot;);if(a){for(e=&quot;&quot;,r=parseInt(a.substr(0,2),16),n=2;a.length-n;n+=2)i=parseInt(a.substr(n,2),16)^r,e+=String.fromCharCode(i);e=document.createTextNode(e),c.parentNode.replaceChild(e,c)}}}catch(u){}}();/* ]]&gt; */&lt;/script&gt;\nCodec ID                         : V_MPEG4/ISO/AVC\nDuration                         : 42mn 38s\nBit rate                         : 3 328 Kbps\nWidth                            : 1 280 pixels\nHeight                           : 720 pixels\nDisplay aspect ratio             : 16:9\nFrame rate                       : 29.970 fps\nStandard                         : NTSC\nResolution                       : 24 bits\nColorimetry                      : 4:2:0\nScan type                        : Progressive\nBits/(Pixel*Frame)               : 0.120\nStream size                      : 1 015 MiB (91%)\ncolour_primaries                 : BT.709-5, BT.1361, IEC 61966-2-4, SMPTE RP177\ntransfer_characteristics         : BT.709-5, BT.1361\nmatrix_coefficients              : BT.709-5, BT.1361, IEC 61966-2-4 709, SMPTE RP177\n\nAudio\nID                               : 2\nFormat                           : MPEG Audio\nFormat version                   : Version 1\nFormat profile                   : Layer 3\nCodec ID                         : A_MPEG/L3\nCodec ID/Hint                    : MP3\nDuration                         : 42mn 41s\nBit rate mode                    : Constant\nBit rate                         : 256 Kbps\nChannel(s)                       : 2 channels\nSampling rate                    : 48.0 KHz\nResolution                       : 16 bits\nStream size                      : 78.2 MiB (7%)\n &lt;a href=&quot;\nhttp://www.oprah.com/showinfo/Oprahs-Most-Memorable-Guests-The-Ultimate-Reunion&quot; rel=&quot;nofollow&quot; target=&quot;_NEW&quot;&gt;\nhttp://www.oprah.com/showinfo/Oprahs-Most-Memorable-Guests-The-Ultimate-Reunion&lt;/a&gt;","torrent":{"xt":"urn:btih:db18f208e0888d4ab8288b7c8639af5a0813d630","amp;dn":"Oprah.Winfrey.2011.05.19.Most.Memorable.Guests.The.Ultimate.Reun","amp;tr":["udp%3A%2F%2Ftracker.openbittorrent.com%3A80","udp%3A%2F%2Fopen.demonii.com%3A1337","udp%3A%2F%2Ftracker.coppersurfer.tk%3A6969","udp%3A%2F%2Fexodus.desync.com%3A6969"],"infoHash":"db18f208e0888d4ab8288b7c8639af5a0813d630","infoHashBuffer":{"type":"Buffer","data":[219,24,242,8,224,136,141,74,184,40,139,124,134,57,175,90,8,19,214,48]},"announce":[],"urlList":[]}}